<?xml version="1.0" encoding="utf-8"?>
<!-- Generator: Adobe Illustrator 16.0.0, SVG Export Plug-In . SVG Version: 6.00 Build 0)  -->
<!DOCTYPE svg PUBLIC "-//W3C//DTD SVG 1.1//EN" "http://www.w3.org/Graphics/SVG/1.1/DTD/svg11.dtd">
<svg version="1.1" xmlns="http://www.w3.org/2000/svg" xmlns:xlink="http://www.w3.org/1999/xlink" x="0px" y="0px" width="640px"
	 height="400px" viewBox="0 0 640 400" enable-background="new 0 0 640 400" xml:space="preserve">
<g id="Calque_1">
	<g>
		<path fill="#FFFFFF" stroke="#C6C6C6" stroke-width="8" stroke-miterlimit="10" d="M425.693,271.481
			c0-0.063,0.004-0.123,0.004-0.186c0-46.242-37.476-83.724-83.715-83.724c-29.085,0-54.696,14.83-69.7,37.339
			c-3.456-0.881-7.078-1.352-10.809-1.352c-24.099,0-43.631,19.531-43.631,43.635c0,2.473,0.217,4.895,0.612,7.256
			c-36.898,2.17-66.155,32.775-66.155,70.219c0,38.24,30.498,69.318,68.485,70.307c0.456,0.027,0.914,0.049,1.377,0.049h195.115
			c0.646,0,1.283-0.037,1.916-0.094c38.156-1.891,68.508-33.412,68.508-72.037C487.701,306.495,460.738,276.409,425.693,271.481z"/>
	</g>
	<g>
		<path fill="#FFFFFF" stroke="#C6C6C6" stroke-width="8" stroke-miterlimit="10" d="M199.939,271.481
			c0-0.063,0.003-0.123,0.003-0.186c0-46.242-37.475-83.723-83.714-83.723c-29.085,0-54.696,14.83-69.7,37.338
			c-3.456-0.881-7.078-1.352-10.809-1.352c-24.099,0-43.631,19.531-43.631,43.635c0,2.473,0.217,4.895,0.612,7.256
			c-36.898,2.17-66.155,32.775-66.155,70.219c0,38.24,30.498,69.318,68.485,70.307c0.456,0.027,0.914,0.049,1.377,0.049h195.115
			c0.646,0,1.283-0.037,1.916-0.094c38.155-1.891,68.507-33.412,68.507-72.037C261.946,306.495,234.983,276.409,199.939,271.481z"/>
	</g>
	<g>
		<path fill="#FFFFFF" stroke="#C6C6C6" stroke-width="8" stroke-miterlimit="10" d="M187.254,116.282
			c0-0.063,0.004-0.123,0.004-0.186c0-46.242-37.476-83.724-83.715-83.724c-29.085,0-54.696,14.83-69.7,37.339
			c-3.456-0.881-7.078-1.352-10.809-1.352c-24.099,0-43.631,19.531-43.631,43.635c0,2.473,0.217,4.895,0.612,7.256
			c-36.898,2.17-66.155,32.775-66.155,70.218c0,38.241,30.498,69.319,68.485,70.307c0.456,0.027,0.914,0.049,1.377,0.049h195.115
			c0.646,0,1.283-0.037,1.916-0.094c38.156-1.891,68.508-33.412,68.508-72.038C249.262,151.296,222.299,121.21,187.254,116.282z"/>
	</g>
	<g>
		<g>
			<path fill="#FFFFFF" stroke="#C6C6C6" stroke-width="8" stroke-miterlimit="10" d="M268.394,196.657
				c0-0.063,0.003-0.123,0.003-0.186c0-46.242-37.475-83.723-83.714-83.723c-29.085,0-54.696,14.83-69.7,37.338
				c-3.456-0.881-7.078-1.352-10.809-1.352c-24.099,0-43.631,19.531-43.631,43.635c0,2.473,0.217,4.895,0.612,7.256
				C24.257,201.796-5,232.401-5,269.845c0,38.24,30.498,69.318,68.485,70.307c0.456,0.027,0.914,0.049,1.377,0.049h195.115
				c0.646,0,1.283-0.037,1.916-0.094c38.155-1.891,68.507-33.412,68.507-72.037C330.4,231.671,303.438,201.585,268.394,196.657z"/>
		</g>
		<g>
			<path fill="#FFFFFF" stroke="#C6C6C6" stroke-width="8" stroke-linecap="round" stroke-linejoin="round" d="M169.807,232.407
				c3.607,6.457,9.863,10.291,17.402,12.861c6.559-2.799,10.871-6.102,14.855-12.861
				C192.281,235.356,180.299,234.979,169.807,232.407z"/>
			<path fill="#FFFFFF" stroke="#C6C6C6" stroke-width="8" stroke-linecap="round" stroke-linejoin="round" d="M99.666,271.425
				c-9.609,6.633,10.366,11.754-1.816,19.369C119.364,291.728,110.536,263.856,99.666,271.425z"/>
			<path fill="#FFFFFF" stroke="#C6C6C6" stroke-width="8" stroke-linecap="round" stroke-linejoin="round" d="M268.395,196.657
				c0-0.063,0.002-0.123,0.002-0.186c0-46.242-37.475-83.723-83.713-83.723c-29.085,0-54.697,14.83-69.701,37.338
				c-3.456-0.881-7.078-1.352-10.809-1.352c-24.099,0-43.631,19.531-43.631,43.635c0,2.473,0.217,4.895,0.612,7.256
				C24.257,201.796-5,232.401-5,269.845c0,38.24,30.498,69.318,68.485,70.307c0.456,0.027,0.914,0.049,1.377,0.049h195.116
				c0.645,0,1.283-0.037,1.916-0.094c38.154-1.891,68.506-33.412,68.506-72.037C330.4,231.671,303.438,201.585,268.395,196.657z
				 M236.191,206.757c-7.012,21.766-37.656,34.225-39.674,52.006c-5.75,51.277-6.76,64.088-31.68,62.146
				c-29.307-2.295-12.409-62.297-40.001-69.359c-6.331-1.666-14.401,4.389-13.896,8.701c4.792,1.236,13.114,9.08,13.14,18.867
				c0.202,28.475-41.994,27.945-42.195,0.15c-0.075-10.291,7.617-18.563,17.63-19.949c4.767-20.027,28.878-26.131,44.566-10.518
				c14.124,14.072,8.097,58.488,23.708,58.488c9.584,0,10.594-25.5,7.641-48.527c-2.32-18.361-34.603-32.938-40.933-50.846
				c-4.767-13.494-3.657-42.271,7.844-52.941c3.531-3.305,28.476-15.184,27.265,3.33c-0.305,6.961-10.921,4.313-18.16,3.656
				c-11.627,6.836-11.451,30.469-8.5,41.111c8.727,31.553,79.777,29.459,84.771,0c2.748-16.191,3.908-36.52-8.5-41.111
				c-6.785,1.061-18.111,3.104-18.16-3.656c-0.201-16.496,18.941-6.986,24.238-3.607
				C236.063,161.458,242.799,186.302,236.191,206.757z"/>
		</g>
	</g>
</g>
<g id="Backup">
	<g>
		<path fill="#FFFFFF" stroke="#9D9D9C" stroke-width="0.8795" stroke-miterlimit="10" d="M437.752,576.478
			c4.811-0.646,9.594-2.098,14.163-4.428c15.329-7.811,24.149-23.334,24.149-39.436c0-6.752-1.552-13.604-4.824-20.033
			c-7.805-15.326-23.323-24.146-39.422-24.148c-6.756,0-13.608,1.553-20.039,4.83c-15.33,7.805-24.148,23.33-24.15,39.43
			c0,2.404,0.198,4.818,0.599,7.223C409.638,544.192,427.644,557.874,437.752,576.478z M418.203,539.612v0.002
			c-1.137-2.229-1.677-4.609-1.677-6.951c0-5.576,3.058-10.951,8.363-13.658c2.228-1.133,4.606-1.672,6.948-1.672
			c0.003,0,0.003,0,0.003,0c5.578,0,10.956,3.055,13.66,8.365c1.137,2.227,1.676,4.604,1.676,6.943
			c0,5.58-3.063,10.959-8.374,13.668c-2.225,1.135-4.604,1.674-6.945,1.674h-0.003C426.277,547.983,420.898,544.925,418.203,539.612
			z"/>
		<path fill="#FFFFFF" stroke="#9D9D9C" stroke-width="0.8795" stroke-miterlimit="10" d="M508.567,578.749
			c-9.182,0-18.357,3.498-25.358,10.494c-6.998,7.012-10.501,16.189-10.501,25.371c0,9.18,3.497,18.355,10.501,25.357
			c7.009,7.008,16.184,10.508,25.363,10.51c9.176-0.002,18.35-3.502,25.352-10.51c7.005-6.998,10.505-16.174,10.506-25.357
			c-0.001-9.182-3.501-18.361-10.506-25.371C526.922,582.247,517.745,578.749,508.567,578.749z M517.441,623.479
			c-2.45,2.449-5.665,3.676-8.879,3.676c0,0,0,0-0.002,0c-3.205,0-6.414-1.221-8.857-3.668c-2.438-2.449-3.663-5.66-3.66-8.867
			c-0.003-3.211,1.225-6.424,3.677-8.867l-0.003,0.002c2.444-2.455,5.652-3.68,8.855-3.68h0.003c3.202,0,6.411,1.227,8.854,3.678
			c2.455,2.443,3.681,5.656,3.681,8.865C521.11,617.823,519.887,621.032,517.441,623.479z"/>
		<path fill="#FFFFFF" stroke="#9D9D9C" stroke-width="0.8795" stroke-miterlimit="10" d="M381.576,517.413
			c0.644-2.285,1.346-4.582,1.57-5.309l-5.712-6.449C379.091,509.437,380.48,513.364,381.576,517.413z"/>
		<path fill="#FFFFFF" stroke="#9D9D9C" stroke-width="0.8795" stroke-miterlimit="10" d="M513.791,540.083l-0.385-0.055
			l0.005-0.387l0.003-0.184c0-45.953-37.213-83.209-83.143-83.279c-25.937,0.035-49.083,11.924-64.332,30.539
			c4.047,5.029,7.525,10.533,10.338,16.418l3.987-6.123l10.242,3.23c1.671-2.096,4.294-4.639,6.542-6.703
			c1.89-1.732,3.512-3.121,4.063-3.588l-2.208-10.799l7.252-3.699l7.315,7.994c5.35-2.004,10.866-3.078,16.354-3.285l3.39-10.137
			l8.122,0.432l2.393,10.771c1.336,0.432,7.903,2.588,12.047,4.68l7.871-6.951l6.822,4.436l-3.289,10.393
			c3.165,2.875,6.019,6.168,8.458,9.861l10.715-2.18l3.691,7.244l-8.147,7.467l2.461,11.939l10.457,3.506l-0.422,8.119
			l-10.776,2.389l-4.085,13.176l7.317,8.281l-4.436,6.816l-10.514-3.314c-1.068,1.053-6.421,6.27-11.095,9.377l2.114,10.402
			l-7.243,3.697l-7.352-8.035c-2.286,0.76-4.599,1.342-6.92,1.77c3.288,8.281,5.11,17.303,5.11,26.756
			c-0.001,36.236-26.546,66.256-61.256,71.688h120.173c0.629,0,1.254-0.033,1.877-0.088h0.01h0.007
			c37.921-1.885,68.082-33.213,68.081-71.6C575.409,574.884,548.616,544.983,513.791,540.083z M548.243,631.257
			c-0.61,1.176-3.404,6.459-6.184,9.979l4.26,7.508l-4.751,4.777l-7.729-4.381c-3.392,2.48-7.648,4.682-8.701,5.213l-0.08,8.984
			l-6.501,1.742l-4.552-7.754l-11.145-0.135l-4.563,7.734l-6.51-1.744l-0.071-8.984l-8.533-4.852l-7.825,4.42l-4.78-4.746
			l4.419-7.824c-0.335-0.488-1.166-1.713-2.112-3.191c-1.146-1.795-2.457-3.959-3.266-5.678l-8.977-0.076l-1.757-6.496l7.435-4.396
			c-0.58-3.766-0.64-9.135-0.648-10.354l-7.749-4.559l1.733-6.521l8.747-0.08c1.234-3.357,2.913-6.59,5.016-9.613
			c0.244-0.402,0.435-0.713,0.554-0.908l-4.424-7.814l4.779-4.768l7.664,4.342c3.614-2.867,7.584-5.068,11.743-6.604l0.085-8.699
			l6.499-1.732l4.564,7.729c0.018,0,0.035,0,0.055,0c1.337,0.002,6.697,0.033,10.349,0.59l4.337-7.361l6.513,1.766l0.083,8.859
			c3.143,1.418,6.148,3.232,8.94,5.449l7.732-4.365l4.76,4.75l-4.416,7.838l4.855,8.537l8.979,0.076l1.75,6.508l-7.748,4.559
			l0.135,11.125l7.763,4.564l-1.752,6.516L548.243,631.257z"/>
	</g>
	<g>
		<path fill="#FFFFFF" stroke="#9D9D9C" stroke-width="0.8795" stroke-linecap="round" stroke-linejoin="round" d="M285.338,575.396
			c3.607,6.457,9.862,10.291,17.402,12.861c6.559-2.799,10.87-6.102,14.855-12.861C307.812,578.345,295.829,577.968,285.338,575.396
			z"/>
		<path fill="#FFFFFF" stroke="#9D9D9C" stroke-width="0.8795" stroke-linecap="round" stroke-linejoin="round" d="M215.196,614.413
			c-9.609,6.633,10.366,11.754-1.816,19.369C234.895,634.716,226.066,606.845,215.196,614.413z"/>
		<path fill="#FFFFFF" stroke="#9D9D9C" stroke-width="0.8795" stroke-linecap="round" stroke-linejoin="round" d="M383.925,539.646
			c0-0.063,0.003-0.123,0.003-0.186c0-46.242-37.475-83.723-83.714-83.723c-29.085,0-54.696,14.83-69.7,37.338
			c-3.456-0.881-7.078-1.352-10.809-1.352c-24.099,0-43.631,19.531-43.631,43.635c0,2.473,0.217,4.895,0.612,7.256
			c-36.898,2.17-66.155,32.775-66.155,70.219c0,38.24,30.498,69.318,68.485,70.307c0.456,0.027,0.914,0.049,1.377,0.049h195.115
			c0.646,0,1.283-0.037,1.916-0.094c38.155-1.891,68.507-33.412,68.507-72.037C445.932,574.659,418.969,544.573,383.925,539.646z
			 M351.722,549.745c-7.012,21.766-37.656,34.225-39.674,52.006c-5.75,51.277-6.76,64.088-31.68,62.146
			c-29.307-2.295-12.408-62.297-40.001-69.359c-6.331-1.666-14.401,4.389-13.896,8.701c4.792,1.236,13.114,9.08,13.14,18.867
			c0.202,28.475-41.994,27.945-42.195,0.15c-0.075-10.291,7.617-18.563,17.63-19.949c4.767-20.027,28.878-26.131,44.566-10.518
			c14.124,14.072,8.097,58.488,23.709,58.488c9.583,0,10.593-25.5,7.641-48.527c-2.32-18.361-34.604-32.938-40.934-50.846
			c-4.767-13.494-3.657-42.271,7.844-52.941c3.531-3.305,28.476-15.184,27.266,3.33c-0.305,6.961-10.922,4.313-18.16,3.656
			c-11.627,6.836-11.451,30.469-8.5,41.111c8.727,31.553,79.776,29.459,84.771,0c2.748-16.191,3.908-36.52-8.501-41.111
			c-6.785,1.061-18.11,3.104-18.16-3.656c-0.201-16.496,18.941-6.986,24.239-3.607C351.594,504.446,358.329,529.29,351.722,549.745z
			"/>
	</g>
	<g>
		<path fill="#FFFFFF" stroke="#9D9D9C" stroke-width="0.8795" stroke-linecap="round" stroke-linejoin="round" d="M416.353,779.806
			c0-0.063,0.003-0.123,0.003-0.186c0-46.242-37.475-83.723-83.714-83.723c-29.085,0-54.696,14.83-69.7,37.338
			c-3.456-0.881-7.078-1.352-10.809-1.352c-24.099,0-43.631,19.531-43.631,43.635c0,2.473,0.217,4.895,0.612,7.256
			c-36.898,2.17-66.155,32.775-66.155,70.219c0,38.24,30.498,69.318,68.485,70.307c0.456,0.027,0.914,0.049,1.377,0.049h195.115
			c0.646,0,1.283-0.037,1.916-0.094c38.155-1.891,68.507-33.412,68.507-72.037C478.359,814.819,451.396,784.733,416.353,779.806z"/>
	</g>
</g>
</svg>
