<?xml version="1.0" encoding="utf-8"?>
<!-- Generator: Adobe Illustrator 16.0.0, SVG Export Plug-In . SVG Version: 6.00 Build 0)  -->
<!DOCTYPE svg PUBLIC "-//W3C//DTD SVG 1.1//EN" "http://www.w3.org/Graphics/SVG/1.1/DTD/svg11.dtd">
<svg version="1.1" id="Calque_1" xmlns="http://www.w3.org/2000/svg" xmlns:xlink="http://www.w3.org/1999/xlink" x="0px" y="0px"
	 width="1024px" height="1024px" viewBox="0 0 1024 1024" enable-background="new 0 0 1024 1024" xml:space="preserve">
<g>
	<path fill="#FFFFFF" d="M533.553,519.532c10.923,19.556,29.827,31.136,52.654,38.921c19.822-8.443,32.902-18.446,44.939-38.921
		C601.516,528.494,565.274,527.313,533.553,519.532z"/>
	<path fill="#FFFFFF" d="M321.287,637.6c-29.107,20.08,31.336,35.584-5.495,58.611C380.878,699.086,354.128,614.707,321.287,637.6z"
		/>
	<path fill="#FFFFFF" d="M831.894,411.339c0-0.195,0-0.328,0-0.524c0-139.98-113.42-253.406-253.339-253.406
		c-88.047,0-165.56,44.874-210.952,112.968c-10.466-2.619-21.394-4.056-32.707-4.056c-72.933,0-132,59.133-132,132.066
		c0,7.457,0.652,14.785,1.828,21.979C93.064,426.905,4.5,519.532,4.5,632.824c0,115.715,92.293,209.775,207.29,212.785
		c1.371,0.133,2.748,0.133,4.185,0.133h590.412c1.961,0,3.923-0.133,5.885-0.262c115.388-5.757,207.229-101.126,207.229-218.018
		C1019.5,517.309,937.996,426.253,831.894,411.339z M734.435,441.885c-21.193,65.872-113.95,103.612-120.102,157.385
		c-17.399,155.156-20.409,194.011-95.826,188.125c-88.699-6.934-37.545-188.521-121.077-209.909
		c-19.166-5.038-43.564,13.279-42.059,26.298c14.518,3.79,39.702,27.535,39.769,57.101c0.59,86.213-127.096,84.647-127.687,0.462
		c-0.195-31.136,23.027-56.191,53.377-60.376c14.395-60.572,87.394-79.085,134.814-31.794
		c42.783,42.588,24.531,177.007,71.756,177.007c29.047,0,32.117-77.186,23.155-146.913c-6.998-55.534-104.72-99.622-123.885-153.852
		c-14.457-40.815-11.057-127.943,23.741-160.193c10.661-10.009,86.151-45.982,82.552,10.076
		c-0.981,21.061-33.098,13.013-55.01,11.052c-35.193,20.669-34.603,92.231-25.708,124.415c26.426,95.503,241.369,89.155,256.544,0
		c8.375-48.991,11.774-110.544-25.77-124.415c-20.542,3.204-54.749,9.418-54.949-11.052c-0.586-49.911,57.3-21.132,73.395-10.928
		C734.039,304.847,754.447,380.008,734.435,441.885z"/>
</g>
</svg>
