<?xml version="1.0" encoding="utf-8"?>
<!-- Generator: Adobe Illustrator 16.0.0, SVG Export Plug-In . SVG Version: 6.00 Build 0)  -->
<!DOCTYPE svg PUBLIC "-//W3C//DTD SVG 1.1//EN" "http://www.w3.org/Graphics/SVG/1.1/DTD/svg11.dtd">
<svg version="1.1" id="Calque_1" xmlns="http://www.w3.org/2000/svg" xmlns:xlink="http://www.w3.org/1999/xlink" x="0px" y="0px"
	 width="1024px" height="1024px" viewBox="0 0 1024 1024" enable-background="new 0 0 1024 1024" xml:space="preserve">
<path fill="#36A9E1" d="M1021.5,512.027c0,281.367-228.082,509.449-509.5,509.449c-281.371,0-509.5-228.082-509.5-509.449
	c0-281.371,228.129-509.5,509.5-509.5C793.418,2.527,1021.5,230.656,1021.5,512.027z"/>
<g>
	<path fill="#FFFFFF" stroke="#9D9D9C" stroke-width="2.0247" stroke-linecap="round" stroke-linejoin="round" d="M528.371,490.234
		c8.309,14.875,22.688,23.684,40.051,29.605c15.078-6.422,25.027-14.031,34.184-29.605
		C580.066,497.051,552.5,496.152,528.371,490.234z"/>
	<path fill="#FFFFFF" stroke="#9D9D9C" stroke-width="2.0247" stroke-linecap="round" stroke-linejoin="round" d="M366.91,580.043
		c-22.141,15.273,23.836,27.066-4.18,44.582C412.238,626.813,391.891,562.629,366.91,580.043z"/>
	<path fill="#FFFFFF" stroke="#9D9D9C" stroke-width="2.0247" stroke-linecap="round" stroke-linejoin="round" d="M755.305,407.938
		c0-0.148,0-0.25,0-0.398c0-106.477-86.273-192.754-192.703-192.754c-66.973,0-125.934,34.133-160.461,85.93
		c-7.961-1.992-16.273-3.086-24.879-3.086c-55.477,0-100.406,44.98-100.406,100.457c0,5.672,0.496,11.246,1.391,16.719
		c-84.934,4.973-152.301,75.43-152.301,161.605c0,88.02,70.203,159.566,157.676,161.855c1.043,0.102,2.09,0.102,3.184,0.102h449.098
		c1.492,0,2.984-0.102,4.477-0.199c87.77-4.379,157.629-76.922,157.629-165.836C898.008,488.543,836.012,419.281,755.305,407.938z
		 M681.172,431.172c-16.121,50.105-86.676,78.813-91.355,119.715c-13.234,118.02-15.523,147.574-72.891,143.098
		c-67.469-5.273-28.559-143.398-92.098-159.668c-14.578-3.832-33.137,10.102-31.992,20.004c11.043,2.883,30.199,20.945,30.25,43.434
		c0.449,65.578-96.676,64.387-97.125,0.352c-0.148-23.684,17.516-42.742,40.602-45.926c10.949-46.074,66.477-60.156,102.547-24.184
		c32.543,32.395,18.66,134.641,54.582,134.641c22.094,0,24.43-58.711,17.613-111.75c-5.324-42.242-79.656-75.777-94.234-117.027
		c-10.996-31.047-8.41-97.32,18.059-121.852c8.109-7.613,65.531-34.977,62.793,7.664c-0.746,16.02-25.176,9.898-41.844,8.406
		c-26.77,15.723-26.32,70.156-19.555,94.637c20.102,72.645,183.598,67.816,195.141,0c6.371-37.266,8.957-84.086-19.602-94.637
		c-15.625,2.438-41.645,7.164-41.797-8.406c-0.445-37.965,43.586-16.074,55.828-8.313
		C680.871,326.934,696.395,384.105,681.172,431.172z"/>
</g>
</svg>
