<?xml version="1.0" encoding="utf-8"?>
<!-- Generator: Adobe Illustrator 16.0.0, SVG Export Plug-In . SVG Version: 6.00 Build 0)  -->
<!DOCTYPE svg PUBLIC "-//W3C//DTD SVG 1.1//EN" "http://www.w3.org/Graphics/SVG/1.1/DTD/svg11.dtd">
<svg version="1.1" id="Calque_1" xmlns="http://www.w3.org/2000/svg" xmlns:xlink="http://www.w3.org/1999/xlink" x="0px" y="0px"
	 width="16px" height="16px" viewBox="0 0 1024 1024" enable-background="new 0 0 1024 1024" xml:space="preserve">
<path fill="#36A9E1" d="M576.473,63.256c-112.188,0-192.748,91.887-192.748,179.885c0,89.973,6.432,154.223,51.385,224.871
	c14.402,18.637,31.184,22.492,44.988,38.555c8.66,32.156,15.434,64.281,6.434,96.406c-28.016,9.789-54.621,21.332-81.598,32.125
	c-32.785-17.57-70.682-32.125-103.434-44.988c-4.518-18.008-1.287-31.309,3.199-48.188c7.717-8.031,14.777-11.605,23.121-19.262
	c23.779-28.922,25.066-77.77,25.066-112.465c0-51.387-46.273-89.943-96.373-89.943c-55.904,0-96.375,46.271-96.375,89.943h-1.285
	c0,44.984,3.199,77.109,25.693,112.465c6.43,9.602,15.561,11.23,22.492,19.262c4.33,16.063,7.781,32.125,3.201,48.188
	c-41.098,14.305-79.904,32.125-115.637,51.387c-26.979,19.262-14.963,11.672-32.123,73.914
	c-7.969,32.121,83.51,46.867,149.045,52.012c-3.199,17.633-7.686,41.098-20.549,86.086
	c-20.547,80.309,279.68,109.234,385.496,109.234c156.105,0,405.57-29.301,384.238-109.234
	c-33.441-124.672-13.426-109.863-62.996-147.762c-70.02-42.039-157.547-74.977-231.27-102.773
	c-9.664-35.828-2.637-62.367,6.398-96.406c15.059-16.063,32.125-23.121,46.305-38.555c44.297-56.781,50.07-155.729,50.07-224.871
	C769.219,141.246,677.363,63.256,576.473,63.256z"/>
</svg>
