<?xml version="1.0" encoding="utf-8"?>
<!-- Generator: Adobe Illustrator 16.0.0, SVG Export Plug-In . SVG Version: 6.00 Build 0)  -->
<!DOCTYPE svg PUBLIC "-//W3C//DTD SVG 1.1//EN" "http://www.w3.org/Graphics/SVG/1.1/DTD/svg11.dtd">
<svg version="1.1" id="Calque_1" xmlns="http://www.w3.org/2000/svg" xmlns:xlink="http://www.w3.org/1999/xlink" x="0px" y="0px"
	 width="256px" height="128px" viewBox="0 0 256 128" enable-background="new 0 0 256 128" xml:space="preserve">
<g>
	<path fill="#36A9E1" stroke="#FFFFFF" stroke-width="0.523" stroke-miterlimit="10" d="M131.758,67.706
		c1.903,3.409,5.199,5.429,9.179,6.785c3.456-1.472,5.736-3.216,7.835-6.785C143.605,69.269,137.287,69.063,131.758,67.706z"/>
	<path fill="#36A9E1" stroke="#FFFFFF" stroke-width="0.523" stroke-miterlimit="10" d="M94.752,88.289
		c-5.074,3.501,5.463,6.204-0.958,10.219C105.141,99.009,100.478,84.299,94.752,88.289z"/>
	<path fill="#36A9E1" stroke="#FFFFFF" stroke-width="0.523" stroke-miterlimit="10" d="M183.769,48.845c0-0.034,0-0.057,0-0.091
		c0-24.403-19.773-44.177-44.166-44.177c-15.35,0-28.863,7.823-36.776,19.694c-1.825-0.457-3.729-0.707-5.702-0.707
		c-12.714,0-23.012,10.309-23.012,23.024c0,1.3,0.113,2.577,0.318,3.832c-19.466,1.14-34.906,17.288-34.906,37.039
		c0,20.173,16.09,36.571,36.138,37.096c0.239,0.023,0.479,0.023,0.729,0.023h102.929c0.343,0,0.685-0.023,1.026-0.046
		c20.116-1.004,36.127-17.63,36.127-38.008C216.475,67.318,202.266,51.444,183.769,48.845z M166.778,54.17
		c-3.695,11.483-19.866,18.063-20.938,27.438c-3.033,27.049-3.558,33.822-16.705,32.797c-15.464-1.209-6.546-32.866-21.108-36.595
		c-3.341-0.878-7.595,2.315-7.332,4.585c2.531,0.66,6.921,4.8,6.933,9.954c0.103,15.03-22.157,14.757-22.26,0.081
		c-0.034-5.429,4.014-9.797,9.305-10.526c2.51-10.56,15.236-13.787,23.503-5.542c7.458,7.424,4.277,30.858,12.509,30.858
		c5.064,0,5.6-13.456,4.037-25.612c-1.22-9.682-18.256-17.368-21.598-26.822c-2.52-7.116-1.927-22.305,4.139-27.927
		c1.858-1.745,15.019-8.016,14.391,1.757c-0.171,3.671-5.77,2.269-9.59,1.926c-6.135,3.604-6.033,16.079-4.482,21.69
		c4.607,16.649,42.079,15.543,44.724,0c1.461-8.541,2.053-19.271-4.492-21.69c-3.581,0.559-9.545,1.642-9.579-1.926
		c-0.103-8.701,9.989-3.684,12.795-1.905C166.709,30.279,170.267,43.382,166.778,54.17z"/>
</g>
</svg>
