<?xml version="1.0" encoding="utf-8"?>
<!-- Generator: Adobe Illustrator 16.0.0, SVG Export Plug-In . SVG Version: 6.00 Build 0)  -->
<!DOCTYPE svg PUBLIC "-//W3C//DTD SVG 1.1//EN" "http://www.w3.org/Graphics/SVG/1.1/DTD/svg11.dtd">
<svg version="1.1" id="Calque_1" xmlns="http://www.w3.org/2000/svg" xmlns:xlink="http://www.w3.org/1999/xlink" x="0px" y="0px"
	 width="16px" height="16px" viewBox="0 0 1024 1024" enable-background="new 0 0 1024 1024" xml:space="preserve">
<path fill="#36A9E1" d="M94.143,127.286C78.071,127.286,62,143.357,62,159.429v707.144c0,16.699,15.443,32.143,32.143,32.143
	h835.715c16.699,0,32.143-15.507,32.143-32.143V288c0-16.071-16.072-32.143-32.143-32.143H512L383.429,127.286H94.143z
	 M656.643,352.286c44.385,0,80.357,35.972,80.357,80.356C737,477.028,701.027,513,656.643,513c-18.834,0-37.039-6.623-51.479-18.708
	l-157.575,78.851c0.063,1.381,0.125,2.761,0.125,4.143c-0.063,1.381-0.125,2.764-0.251,4.145l157.701,78.849
	c14.439-12.052,32.645-18.706,51.479-18.706c44.385,0,80.357,35.972,80.357,80.355c0,44.386-35.973,80.357-80.357,80.357
	s-80.357-35.972-80.357-80.357c0.063-1.38,0.127-2.763,0.252-4.143l-157.701-78.85c-14.439,12.053-32.646,18.706-51.479,18.706
	c-44.385,0-80.357-35.971-80.357-80.356c0-44.384,35.973-80.356,80.357-80.356c18.833,0,37.039,6.624,51.479,18.708l157.576-78.851
	c-0.063-1.38-0.127-2.761-0.127-4.143C576.285,388.258,612.258,352.286,656.643,352.286z"/>
</svg>
