<?xml version="1.0" encoding="utf-8"?>
<!-- Generator: Adobe Illustrator 16.0.0, SVG Export Plug-In . SVG Version: 6.00 Build 0)  -->
<!DOCTYPE svg PUBLIC "-//W3C//DTD SVG 1.1//EN" "http://www.w3.org/Graphics/SVG/1.1/DTD/svg11.dtd">
<svg version="1.1" id="Calque_1" xmlns="http://www.w3.org/2000/svg" xmlns:xlink="http://www.w3.org/1999/xlink" x="0px" y="0px"
	 width="266px" height="126px" viewBox="0 0 266 126" enable-background="new 0 0 266 126" xml:space="preserve">
<g>
	<path fill="#FFFFFF" stroke="#9D9D9C" stroke-width="0.46" stroke-miterlimit="10" d="M182.423,66.811
		c2.516-0.336,5.018-1.098,7.408-2.316c8.02-4.084,12.633-12.203,12.633-20.625c0-3.531-0.814-7.115-2.525-10.477
		c-4.084-8.016-12.195-12.629-20.619-12.629c-3.531,0-7.115,0.813-10.48,2.525c-8.014,4.082-12.627,12.201-12.627,20.621
		c0,1.258,0.104,2.521,0.314,3.779C167.72,49.924,177.136,57.08,182.423,66.811z M172.2,47.531L172.2,47.531
		c-0.594-1.166-0.877-2.41-0.877-3.637c0-2.914,1.6-5.727,4.375-7.143c1.164-0.592,2.408-0.875,3.635-0.875l0,0
		c2.916,0,5.732,1.6,7.143,4.377c0.598,1.164,0.875,2.406,0.875,3.629c0,2.918-1.598,5.732-4.375,7.15
		c-1.168,0.594-2.408,0.875-3.633,0.875l0,0C176.423,51.908,173.61,50.309,172.2,47.531z"/>
	<path fill="#FFFFFF" stroke="#9D9D9C" stroke-width="0.46" stroke-miterlimit="10" d="M219.462,67.996
		c-4.803,0-9.6,1.832-13.262,5.49c-3.66,3.666-5.494,8.467-5.494,13.27s1.828,9.6,5.494,13.262
		c3.662,3.664,8.463,5.498,13.262,5.498c4.803,0,9.6-1.834,13.26-5.498c3.662-3.662,5.494-8.459,5.494-13.262
		s-1.832-9.604-5.494-13.27C229.062,69.828,224.265,67.996,219.462,67.996z M224.103,91.393c-1.281,1.279-2.965,1.922-4.645,1.922
		l0,0c-1.676,0-3.357-0.639-4.633-1.918c-1.275-1.281-1.918-2.961-1.914-4.637c-0.004-1.68,0.639-3.359,1.924-4.641h-0.004
		c1.279-1.279,2.959-1.922,4.631-1.922c0.004,0,0.004,0,0.004,0c1.676,0,3.352,0.643,4.631,1.922
		c1.281,1.281,1.924,2.961,1.924,4.637C226.021,88.436,225.382,90.111,224.103,91.393z"/>
	<path fill="#FFFFFF" stroke="#9D9D9C" stroke-width="0.46" stroke-miterlimit="10" d="M153.044,35.92
		c0.338-1.195,0.705-2.396,0.822-2.777l-2.986-3.373C151.747,31.748,152.472,33.803,153.044,35.92z"/>
	<path fill="#FFFFFF" stroke="#9D9D9C" stroke-width="0.46" stroke-miterlimit="10" d="M222.192,47.775l-0.201-0.029l0.004-0.201
		v-0.096c0-24.033-19.461-43.518-43.484-43.555c-13.563,0.018-25.668,6.236-33.645,15.973c2.119,2.629,3.938,5.508,5.406,8.586
		l2.088-3.203l5.355,1.689c0.873-1.096,2.246-2.426,3.424-3.506c0.988-0.906,1.832-1.633,2.125-1.877l-1.154-5.646l3.791-1.936
		l3.822,4.182c2.799-1.049,5.688-1.609,8.553-1.719l1.775-5.301l4.25,0.225l1.248,5.635c0.701,0.225,4.133,1.354,6.303,2.447
		l4.115-3.637l3.566,2.32l-1.717,5.436c1.654,1.504,3.145,3.227,4.422,5.158l5.605-1.141l1.928,3.789l-4.26,3.906l1.289,6.244
		l5.469,1.832L212.05,47.6l-5.639,1.248l-2.133,6.891l3.826,4.33l-2.322,3.566l-5.498-1.734c-0.557,0.553-3.359,3.279-5.799,4.906
		l1.105,5.439l-3.793,1.932l-3.844-4.199c-1.195,0.395-2.404,0.699-3.617,0.924c1.717,4.332,2.674,9.049,2.674,13.994
		c0,18.953-13.887,34.652-32.039,37.492h62.85c0.328,0,0.656-0.02,0.984-0.045l0.004-0.006h0.006
		c19.828-0.982,35.604-17.365,35.604-37.441C254.419,65.975,240.403,50.34,222.192,47.775z M240.212,95.461
		c-0.32,0.617-1.779,3.379-3.234,5.217l2.227,3.926l-2.484,2.502l-4.043-2.291c-1.773,1.293-4.002,2.449-4.549,2.727l-0.041,4.695
		l-3.4,0.912l-2.381-4.053l-5.826-0.072l-2.391,4.043l-3.404-0.912l-0.037-4.699l-4.465-2.537l-4.088,2.313l-2.502-2.482
		l2.309-4.094c-0.176-0.252-0.605-0.893-1.1-1.666c-0.604-0.939-1.285-2.07-1.713-2.969l-4.693-0.041l-0.916-3.396l3.885-2.299
		c-0.301-1.969-0.332-4.781-0.336-5.418l-4.057-2.381l0.906-3.41l4.578-0.045c0.646-1.756,1.523-3.445,2.623-5.027
		c0.127-0.211,0.225-0.373,0.287-0.475l-2.313-4.088l2.502-2.494l4.008,2.273c1.891-1.5,3.967-2.65,6.141-3.455l0.045-4.549
		l3.4-0.906l2.385,4.041c0.01,0,0.018,0,0.027,0c0.701,0.002,3.504,0.018,5.412,0.309l2.27-3.85l3.404,0.924l0.045,4.633
		c1.645,0.742,3.217,1.689,4.678,2.852l4.043-2.285l2.488,2.484l-2.309,4.102l2.537,4.465l4.699,0.041l0.916,3.4l-4.057,2.385
		l0.072,5.818l4.061,2.389l-0.916,3.406L240.212,95.461z"/>
</g>
<g>
	<path fill="#FFFFFF" stroke="#9D9D9C" stroke-width="0.46" stroke-linecap="round" stroke-linejoin="round" d="M102.714,66.244
		c1.885,3.377,5.156,5.383,9.1,6.725c3.43-1.459,5.686-3.189,7.77-6.725C114.466,67.785,108.2,67.588,102.714,66.244z"/>
	<path fill="#FFFFFF" stroke="#9D9D9C" stroke-width="0.46" stroke-linecap="round" stroke-linejoin="round" d="M66.028,86.652
		c-5.025,3.469,5.422,6.146-0.949,10.131C76.331,97.268,71.714,82.695,66.028,86.652z"/>
	<path fill="#FFFFFF" stroke="#9D9D9C" stroke-width="0.46" stroke-linecap="round" stroke-linejoin="round" d="M154.271,47.547
		c0-0.033,0.006-0.064,0.006-0.096c0-24.186-19.6-43.787-43.783-43.787c-15.211,0-28.605,7.754-36.453,19.527
		c-1.807-0.461-3.701-0.707-5.652-0.707c-12.604,0-22.82,10.215-22.82,22.82c0,1.293,0.113,2.561,0.32,3.795
		C26.591,50.236,11.29,66.24,11.29,85.826c0,20,15.949,36.252,35.816,36.768c0.24,0.014,0.479,0.023,0.721,0.023h102.047
		c0.336,0,0.668-0.018,1-0.045c19.955-0.988,35.826-17.475,35.826-37.676C186.7,65.857,172.599,50.123,154.271,47.547z
		 M137.431,52.828c-3.666,11.387-19.693,17.9-20.75,27.199c-3.006,26.818-3.535,33.52-16.566,32.504
		c-15.328-1.199-6.49-32.58-20.922-36.273c-3.311-0.871-7.531,2.295-7.266,4.551c2.504,0.646,6.857,4.748,6.871,9.865
		c0.105,14.891-21.963,14.617-22.068,0.08c-0.039-5.381,3.984-9.707,9.221-10.436c2.492-10.473,15.104-13.664,23.309-5.498
		c7.387,7.357,4.234,30.588,12.398,30.588c5.012,0,5.541-13.338,3.998-25.381c-1.215-9.6-18.1-17.227-21.41-26.592
		c-2.492-7.057-1.912-22.107,4.104-27.688c1.846-1.729,14.893-7.941,14.26,1.742c-0.158,3.641-5.713,2.254-9.498,1.912
		c-6.082,3.574-5.99,15.936-4.445,21.5c4.563,16.502,41.723,15.408,44.336,0c1.438-8.467,2.043-19.1-4.447-21.5
		c-3.549,0.553-9.471,1.623-9.498-1.912c-0.105-8.629,9.908-3.654,12.678-1.887C137.364,29.139,140.886,42.131,137.431,52.828z"/>
</g>
</svg>
