<?xml version="1.0" encoding="utf-8"?>
<!-- Generator: Adobe Illustrator 16.0.0, SVG Export Plug-In . SVG Version: 6.00 Build 0)  -->
<!DOCTYPE svg PUBLIC "-//W3C//DTD SVG 1.1//EN" "http://www.w3.org/Graphics/SVG/1.1/DTD/svg11.dtd">
<svg version="1.1" id="Calque_1" xmlns="http://www.w3.org/2000/svg" xmlns:xlink="http://www.w3.org/1999/xlink" x="0px" y="0px"
	 width="16px" height="16px" viewBox="0 0 1024 1024" enable-background="new 0 0 1024 1024" xml:space="preserve">
<path fill="#36A9E1" d="M511.941,61.955c-248.48,0-449.939,201.459-449.939,449.971l0,0c0,248.512,201.459,449.969,449.939,449.969
	c82.367-0.125,163.102-22.977,233.414-65.789c55.309,21.973,179.172,87.137,208.613,59.012
	c30.891-29.508-36.16-167.938-52.168-219.352c39.238-68.117,59.953-145.273,60.078-223.84
	C961.879,263.414,760.484,61.986,511.941,61.955L511.941,61.955z M512.004,233.027c154.059,0,278.992,124.9,278.992,278.992l0,0
	c0,154.059-124.934,278.992-278.992,278.992c-154.092,0-278.992-124.934-278.992-278.992
	C233.012,357.928,357.912,233.027,512.004,233.027L512.004,233.027z"/>
</svg>
